<?xml version="1.0" encoding="iso-8859-1"?>
<!-- Generator: Adobe Illustrator 19.0.0, SVG Export Plug-In . SVG Version: 6.00 Build 0)  -->
<svg version="1.1" id="Layer_1" xmlns="http://www.w3.org/2000/svg" xmlns:xlink="http://www.w3.org/1999/xlink" x="0px" y="0px"
	 viewBox="0 0 512 512" style="enable-background:new 0 0 512 512;" xml:space="preserve">
<polygon style="fill:#20AAB0;" points="107.581,253.717 107.581,354.992 256.002,377.497 404.422,354.992 404.422,253.717 
	256.002,231.211 "/>
<rect x="107.578" y="354.99" style="fill:#086063;" width="296.836" height="157.01"/>
<polygon style="fill:#EA4820;" points="381.917,0 130.087,0 124.266,65.623 256.002,88.128 387.738,65.623 "/>
<polygon style="fill:#14858A;" points="404.422,253.717 387.738,65.623 124.266,65.623 107.581,253.717 "/>
<rect x="220.105" y="388.749" style="fill:#06484A;" width="71.787" height="123.251"/>
<circle style="fill:#EA4820;" cx="222.243" cy="304.353" r="16.879"/>
<circle style="fill:#D92622;" cx="289.76" cy="304.353" r="16.879"/>
<g>
	<path style="fill:#06484A;" d="M359.411,329.673h-11.253c-4.662,0-8.44-3.779-8.44-8.44s3.778-8.44,8.44-8.44h11.253
		c4.662,0,8.44,3.779,8.44,8.44S364.073,329.673,359.411,329.673z"/>
	<path style="fill:#06484A;" d="M359.411,295.915h-11.253c-4.662,0-8.44-3.779-8.44-8.44c0-4.661,3.778-8.44,8.44-8.44h11.253
		c4.662,0,8.44,3.779,8.44,8.44C367.851,292.136,364.073,295.915,359.411,295.915z"/>
	<path style="fill:#06484A;" d="M163.845,329.673h-11.253c-4.662,0-8.44-3.779-8.44-8.44s3.778-8.44,8.44-8.44h11.253
		c4.662,0,8.44,3.779,8.44,8.44S168.506,329.673,163.845,329.673z"/>
	<polygon style="fill:#06484A;" points="356.841,99.381 155.162,99.381 144.467,219.959 367.537,219.959 	"/>
</g>
<g>
</g>
<g>
</g>
<g>
</g>
<g>
</g>
<g>
</g>
<g>
</g>
<g>
</g>
<g>
</g>
<g>
</g>
<g>
</g>
<g>
</g>
<g>
</g>
<g>
</g>
<g>
</g>
<g>
</g>
</svg>
